<svg xmlns="http://www.w3.org/2000/svg" width="920" height="260" viewBox="0 0 920 260" role="img" aria-labelledby="title desc">
  <title id="title">Free Flow Solver 처리 흐름</title>
  <desc id="desc">캡처 이미지를 입력하면 보드와 점을 인식하고 퍼즐을 푼 뒤 결과 이미지를 출력한다.</desc>
  <defs>
    <marker id="arrow" viewBox="0 0 10 10" refX="8" refY="5" markerWidth="7" markerHeight="7" orient="auto-start-reverse">
      <path d="M 0 0 L 10 5 L 0 10 z" fill="#62717c"/>
    </marker>
  </defs>
  <rect width="920" height="260" fill="#111416"/>
  <g font-family="Segoe UI, Arial, sans-serif">
    <g transform="translate(34 52)">
      <rect width="150" height="120" rx="8" fill="#1f252a" stroke="#46515a" stroke-width="2"/>
      <rect x="18" y="18" width="114" height="84" fill="#080a0b" stroke="#6f7648" stroke-width="2"/>
      <circle cx="48" cy="44" r="11" fill="#fb0"/>
      <circle cx="101" cy="76" r="11" fill="#fb0"/>
      <text x="75" y="148" text-anchor="middle" fill="#f3f5f6" font-size="18" font-weight="700">캡처 입력</text>
    </g>
    <g transform="translate(260 52)">
      <rect width="150" height="120" rx="8" fill="#1f252a" stroke="#46515a" stroke-width="2"/>
      <path d="M28 24 H122 M28 48 H122 M28 72 H122 M28 96 H122 M28 24 V96 M59 24 V96 M91 24 V96 M122 24 V96" stroke="#d6d8aa" stroke-width="2"/>
      <circle cx="59" cy="48" r="10" fill="#00e5e5"/>
      <circle cx="91" cy="72" r="10" fill="#f0f"/>
      <text x="75" y="148" text-anchor="middle" fill="#f3f5f6" font-size="18" font-weight="700">격자/원 인식</text>
    </g>
    <g transform="translate(486 52)">
      <rect width="150" height="120" rx="8" fill="#1f252a" stroke="#46515a" stroke-width="2"/>
      <path d="M34 92 V30 H72 V62 H116" fill="none" stroke="#00d25f" stroke-width="12" stroke-linecap="round" stroke-linejoin="round"/>
      <path d="M34 32 H116 V92" fill="none" stroke="#2353ff" stroke-width="12" stroke-linecap="round" stroke-linejoin="round"/>
      <text x="75" y="148" text-anchor="middle" fill="#f3f5f6" font-size="18" font-weight="700">엔진 풀이</text>
    </g>
    <g transform="translate(712 52)">
      <rect width="150" height="120" rx="8" fill="#1f252a" stroke="#46515a" stroke-width="2"/>
      <path d="M30 34 H120 M30 60 H120 M30 86 H120 M30 34 V86 M60 34 V86 M90 34 V86 M120 34 V86" stroke="#555" stroke-width="2"/>
      <path d="M45 88 V48 H92 V34" fill="none" stroke="#ff1040" stroke-width="13" stroke-linecap="round" stroke-linejoin="round"/>
      <path d="M45 34 H92 V88" fill="none" stroke="#00e5e5" stroke-width="13" stroke-linecap="round" stroke-linejoin="round"/>
      <text x="75" y="148" text-anchor="middle" fill="#f3f5f6" font-size="18" font-weight="700">결과 이미지</text>
    </g>
    <path d="M202 112 H242" stroke="#62717c" stroke-width="3" marker-end="url(#arrow)"/>
    <path d="M428 112 H468" stroke="#62717c" stroke-width="3" marker-end="url(#arrow)"/>
    <path d="M654 112 H694" stroke="#62717c" stroke-width="3" marker-end="url(#arrow)"/>
  </g>
</svg>
